<svg width="36px" height="36px" viewBox="0 0 32 32" fill="none" xmlns="http://www.w3.org/2000/svg">
<path d="M2.80094 0.880005C1.74906 0.880005 0.880001 1.74907 0.880001 2.80094V29.1991C0.880001 30.2509 1.74906 31.12 2.80094 31.12H29.1991C30.2509 31.12 31.12 30.2538 31.12 29.1991V2.80094C31.12 1.74907 30.2538 0.880005 29.1991 0.880005H2.80094ZM2.80094 2.32H29.1991C29.4662 2.32 29.68 2.53376 29.68 2.80094V29.1991C29.68 29.4663 29.4663 29.68 29.1991 29.68H2.80094C2.53375 29.68 2.32 29.4663 2.32 29.1991V2.80094C2.32 2.53376 2.53375 2.32 2.80094 2.32ZM14.56 14.56V23.6134C14.56 25.0028 14.0341 25.36 13.12 25.36C12.1638 25.36 11.5 24.7638 11.0613 23.9903L8.80001 25.36C9.45532 26.7466 11.0613 28.24 13.2888 28.24C15.7525 28.24 17.44 26.9294 17.44 24.0522V14.56H14.56ZM23.5263 14.56C21.0738 14.56 19.5016 16.1294 19.5016 18.1909C19.5016 20.4269 20.8206 21.4844 22.8034 22.3281L23.4897 22.6234C24.7413 23.1719 25.36 23.5066 25.36 24.4488C25.36 25.2334 24.7638 25.8016 23.6247 25.8016C22.2691 25.8016 21.6278 24.8819 21.04 23.92L18.88 25.36C19.6872 26.9547 21.1356 28.24 23.6866 28.24C26.2966 28.24 28.24 26.8844 28.24 24.4122C28.24 22.1172 26.9238 21.0963 24.5866 20.095L23.9003 19.8025C22.7219 19.2906 22.21 18.9588 22.21 18.1347C22.21 17.4681 22.7219 16.9563 23.5263 16.9563C24.3166 16.9563 24.8228 17.2909 25.2925 18.1347L27.4328 16.7622C26.53 15.1675 25.2728 14.56 23.5263 14.56Z" fill="#F7F7F8"/>
</svg>
