<svg width="24px" height="24px" viewBox="0 0 42 42" fill="none" xmlns="http://www.w3.org/2000/svg">
    <path
        d="M2 0C0.90694 0 0 0.90694 0 2V40C0 41.0931 0.90694 42 2 42H40C41.0931 42 42 41.0931 42 40V2C42 0.90694 41.0931 0 40 0H2ZM2 2H40V40H2V2ZM14.5859 10C13.1459 10 11.994 10.16 11.002 10.416L11 32H13.4648V22.8301C13.8168 22.8611 14.1367 22.8613 14.5527 22.8613C16.4727 22.8613 18.4886 22.0629 19.6406 20.4629C20.4736 19.3749 20.9512 18.0309 20.9512 16.0469C20.9512 14.1599 20.4078 12.5904 19.3848 11.5664C18.2648 10.4784 16.5689 10 14.5859 10ZM14.9766 11.6406C17.7276 11.6406 18.623 13.6221 18.623 15.8301C18.623 18.8701 16.9908 20.4707 14.5918 20.4707C14.1758 20.4707 13.8876 20.4392 13.5996 20.4082V11.8008C13.9196 11.7038 14.4006 11.6406 14.9766 11.6406ZM27.7168 16C25.2258 16 23.3008 17.7686 23.3008 20.3066C23.3008 22.0736 24.4275 23.4232 26.5195 24.7402C28.1455 25.7682 28.5762 26.604 28.5762 27.793C28.5762 29.174 27.6487 30.041 26.2207 30.041C25.1907 30.041 24.1949 29.5913 23.6309 29.2383L23 31.0996C23.697 31.6456 24.9923 32 26.1543 32C28.8103 32 31 30.4901 31 27.3731C31 25.2211 29.5406 23.7742 27.6836 22.6172C26.0896 21.5902 25.6914 20.9792 25.6914 19.9512C25.6914 18.9242 26.387 17.9609 27.748 17.9609C28.611 17.9609 29.2762 18.25 29.9062 18.668L30.5703 16.8027C29.9063 16.3857 28.9788 16 27.7168 16Z"
        fill="#fde9e7" />
</svg>