<svg width="24px" height="24px" viewBox="0 0 42 42" fill="none" xmlns="http://www.w3.org/2000/svg">
    <path
        d="M2 0C0.90694 0 0 0.90694 0 2V40C0 41.0931 0.90694 42 2 42H40C41.0931 42 42 41.0931 42 40V2C42 0.90694 41.0931 0 40 0H2ZM2 2H40V40H2V2ZM15.5859 10C14.1459 10 12.992 10.16 12 10.416V32H14.4648V22.8301C14.8168 22.8611 15.1367 22.8613 15.5527 22.8613C17.4727 22.8613 19.4886 22.0629 20.6406 20.4629C21.4736 19.3749 21.9512 18.0309 21.9512 16.0469C21.9512 14.1599 21.4078 12.5904 20.3848 11.5664C19.2648 10.4784 17.5689 10 15.5859 10ZM15.9766 11.6406C18.7276 11.6406 19.623 13.6221 19.623 15.8301C19.623 18.8701 17.9908 20.4707 15.5918 20.4707C15.1758 20.4707 14.8876 20.4392 14.5996 20.4082V11.8008C14.9196 11.7038 15.4006 11.6406 15.9766 11.6406ZM30.4883 15.75C29.0513 15.75 28.1301 16.402 27.6191 17.875L27.4941 18.25V16H25V32H27.4941L27.5234 22.75C27.5234 22.206 27.5551 21.7578 27.6191 21.3418C27.8741 19.5498 28.9243 18.0938 30.4883 18.0938C30.6813 18.0938 30.84 18.093 31 18.125V15.7812C30.84 15.7492 30.6803 15.75 30.4883 15.75Z"
        fill="#F7F7F8" />
</svg>