<svg width="36px" height="36px" viewBox="0 0 32 32" fill="none" xmlns="http://www.w3.org/2000/svg">
<path d="M1.6 0.880005C1.20237 0.880048 0.880044 1.20238 0.880001 1.6V30.4C0.880044 30.7976 1.20237 31.12 1.6 31.12H30.4C30.7976 31.12 31.12 30.7976 31.12 30.4V1.6C31.12 1.20238 30.7976 0.880048 30.4 0.880005H1.6ZM2.32 2.32H29.68V29.68H2.32V2.32ZM8.8 14.56V17.0406H12.4V28.24H15.28V17.0406H18.88V14.56H8.8ZM24.4178 14.567C22.1753 14.5581 19.6127 15.2377 19.6127 18.3934C19.6127 22.519 25.1716 22.5201 25.1716 24.3813C25.1716 24.5577 25.2464 25.8395 23.2844 25.8395C21.3224 25.8395 19.6872 24.6063 19.6872 24.6063V27.6002C19.6872 27.6002 28.2414 30.3669 28.2414 24.1281C28.2407 20.0781 22.6305 20.2807 22.6305 18.2683C22.6305 17.4885 23.1844 16.7594 24.7188 16.7594C26.2531 16.7594 27.6114 17.665 27.6114 17.665L27.7127 14.9973C27.7127 14.9973 26.162 14.574 24.4178 14.567Z" fill="#F7F7F8"/>
</svg>
