<?xml version="1.0" encoding="UTF-8"?>
<svg id="Layer_2" data-name="Layer 2" xmlns="http://www.w3.org/2000/svg" viewBox="0 0 230 230" width="50px"
     height="50px">
    <defs>
        <style>
            .cls-1 {
            fill: #202020;
            }
        </style>
    </defs>
    <g id="icons">
        <g id="Right_arrow">
            <path d="M115,6c29.11,0,56.49,11.34,77.07,31.93,20.59,20.59,31.93,47.96,31.93,77.07s-11.34,56.49-31.93,77.07c-20.59,20.59-47.96,31.93-77.07,31.93s-56.49-11.34-77.07-31.93c-20.59-20.59-31.93-47.96-31.93-77.07s11.34-56.49,31.93-77.07C58.51,17.34,85.89,6,115,6m0-6C51.49,0,0,51.49,0,115s51.49,115,115,115,115-51.49,115-115S178.51,0,115,0h0Z"/>
            <g>
                <path class="cls-1" d="M70.44,60.66c.3,.67,1.17,1.37,1.97,2.04-.44-.76-1.04-1.4-1.97-2.04Z"/>
                <polygon class="cls-1" points="72.42 62.72 72.44 62.73 72.41 62.7 72.42 62.72"/>
                <path class="cls-1" d="M78.38,182.33c.21-.15,.45-.33,.7-.51-.24,.16-.49,.32-.7,.51Z"/>
                <path class="cls-1"
                      d="M112.55,93.97l.49-.38c2,1.48,.17,.98,2.1,2.24,1.23-.14,3.01,2.36,3.92,2.47-.05,.04,.83,.74,.62,.91,.55-.16,.99,.61,1.63,.94,.28,.05-.07-.22-.14-.45l1.4,.84c.42,.5,.39,.81-.2,.44,1.66,1.34,6.51,5.15,11.43,8.95,2.47,1.89,4.95,3.78,7.03,5.38,.53,.39,1.03,.77,1.5,1.12l.27,.2h0s0,0,0,0c.01,0,.04,0,.07-.02,.3-.21,.07-.09,.43-.5,.33-.14,.04,.16,.36,0-.35,.25-.37,.29-.38,.34-.02,.05-.04,.1-.54,.24l.58-.14c-.11,.04-.22,.07-.35,.09,.16-.01,.29,0,.37,0,.08,0,.12,.01,.13,.02,.02,0-.08,.01-.13,.04-.03,0-.07,.01-.12,.03,.02,.03,.24,.09,.36,.18,.13,.08,.18,.17,0,.15,.01,0,.39,.08,.45,.18-.43-.2,.08,.3-.35,.1-.02,.07-.29,.2,.17,.56-.12-.08-.26-.1-.36-.15,0-.03-.15,.05-.19,.05-.07,.02-.12,.02-.14,.01-.02-.01-.02-.04,0-.1,.02-.03,.04-.06,.08-.1,.03-.04,.1-.1,.08-.11-.27,.17-.53,.34-.78,.49-.26,.17-.49,.34-.65,.53l.8-.37c-1.83,1.37-3.1,1.72-4.04,2.98l.82-.3c-1.1,.81-2.02,1.49-2.77,1.34l1.06-.94c-1.86,1.3-2.96,2.11-4.35,3.42l.56-.37c-1.67,1.82-11.77,9.35-13.2,11.17l1.08-.23-1.37,1.38c.19-.12-.03-1.66,.21-1.65-3.34,2.36-20.64,14.71-23.91,16.62-1.39,.67-.61-.4-.63-.46-1.43,1.18-.4,.83-1.72,1.69-.4,.18-.12-.32,.05-.51-.54,.43-1.15,.68-1.08,.87,.8-.36,.8,.28,1.29,.35l-1.69,1.11-.12-.32c-.38,.25-.43,1.4-2.17,2.38-2.84,1.79-5.78,3.96-8.6,5.82-.07-.19,.45-.69,.96-1.19-.38,.25-.92,.68-1.34,.8,.87-.17-1.03,1-.42,.76-1.57,2.08-4.63,3.28-6.11,4.98,.26,.71,3.3,12.99,3.79,13.71-.57,.37-1.13,.74-1.34,.8,.26,.07,1.41-.61,1.93-1.11l-.16-.45c1.25-1.06,.47,.01,1.76-.92,.29,.27-.87,1.16-1.91,1.93,.98-.62,2.09-1.05,2.24-1.66,.99-.49,.17,.45,1.34-.16,.71-.62,1.51-1.63,2.52-2.06l.02,.07c2.37-1.16,2.96-2.75,5.15-3.79l-.14,.25c.82-.3,2.02-1.49,3.4-2.16-.4,.18-.87,.17-.14-.39,1.58-.8,2.42-1.67,3.64-2.16l.8-1.01c5.06-3.41,24.56-17.53,29.57-21.06l-.16,.19c3.81-2.7,9.62-6.81,15.46-10.95,2.91-2.08,5.83-4.17,8.52-6.09,2.25-1.61,4.4-3.15,6.4-4.58,2.12-1.54,4.09-2.97,5.84-4.24,2.47-1.3,5.23-3.26,7.6-4.81-.2-.16-.4-.31-.58-.46,.24,.22,.37,.37,.42,.46-.38,.17-.48,.14-.36,0-.23-.12-.55-.32-.88-.57-3.41-2.57-3.62-2.65-3.87-2.72-.25-.08-.56-.17-4.05-2.67-2.06-1.43-5.39-3.87-9.37-6.83-1.19-.9-2.49-1.87-3.83-2.88-1.27-.97-2.58-1.97-3.89-2.97-5.22-4.01-10.33-8.05-12.2-9.64-2.43-1.14-4.82-3.43-7.09-4.7l.28,.05c-2.34-1.49-14.61-11.27-17.3-13.04l.3,.32c-2.45-1.41-1.79-1.66-3.45-3.13-.13,.66-2.26-.5-3.03-1.01l.11-.09c-1.17-.75-4-2.2-5.88-3.5l.27-.21c-1.74-.85-4.52-3.11-5.64-3.91-2.43-1.98-5.95-5.34-9.57-7.49l-1.6-2.38-.37-.16s-10.34,6.57-7.36,11.83l-.27,.21,.9,.62c.95,.92,1.67,.97,1.4,1.18l-1.42-1.11c1,.87,.16,.46-.36,.31,.42,.35,.83,.71,1.12,1.05,.28,.05-.07-.22-.19-.41,.64,.33,1.62,.67,2.22,1.31,1.06,.83-.25,.48,.99,1.45,6.5,5.17,12.72,10.3,19.5,15.26,.07,.22-.11,.08-.34-.01,2.11,1.4,3.88,2.78,5.82,4.04,.42,.5,.44,.77,.51,.99-.07-.22,2.52,1.62,5.15,3.54,1.31,.97,2.63,1.95,3.64,2.69,1,.75,1.68,1.27,1.71,1.32Z"/>
            </g>
        </g>
    </g>
</svg>