<svg width="24px" height="24px" viewBox="0 0 56 64" fill="none" xmlns="http://www.w3.org/2000/svg">
    <path
        d="M0.580002 0.619995L5.44 57.06L28.12 63.7L50.8 57.06C52.42 38.2472 54.04 19.4328 55.66 0.619995H0.580002ZM4.11742 3.94H52.1226L47.7688 54.4954L28.12 60.2471L8.47115 54.4954L4.11742 3.94ZM16.0523 13.9L14.4955 33.82H35.5397L34.8753 42.12L28.12 43.1478L21.447 42.12L21.1527 38.8H14.9005L15.5334 47.1L28.1042 50.42L40.6908 47.1L42.295 27.18H21.7855L22.3044 20.54H35.8466L36.22 23.86H42.2127L41.08 13.9H16.0523Z"
        fill="#F7F7F8" />
</svg>