<?xml version="1.0" encoding="UTF-8"?>
<svg id="Layer_2" data-name="Layer 2" xmlns="http://www.w3.org/2000/svg" viewBox="0 0 230 230" width="50px"
     height="50px">
    <defs>
        <style>
            .cls-1 {
            fill: #202020;
            }
        </style>
    </defs>
    <g id="icons">
        <g id="Left_arrow">
            <path d="M115,6c29.11,0,56.49,11.34,77.07,31.93,20.59,20.59,31.93,47.96,31.93,77.07s-11.34,56.49-31.93,77.07c-20.59,20.59-47.96,31.93-77.07,31.93s-56.49-11.34-77.07-31.93c-20.59-20.59-31.93-47.96-31.93-77.07s11.34-56.49,31.93-77.07C58.51,17.34,85.89,6,115,6m0-6C51.49,0,0,51.49,0,115s51.49,115,115,115,115-51.49,115-115S178.51,0,115,0h0Z"/>
            <g>
                <path class="cls-1" d="M151.81,49.06c-.73,.09-1.64,.73-2.52,1.31,.86-.21,1.63-.6,2.52-1.31Z"/>
                <path class="cls-1" d="M149.27,50.37h-.01s.02,0,.03,0h-.02Z"/>
                <path class="cls-1" d="M162.19,168.35c-.22-.14-.47-.31-.72-.47,.23,.17,.47,.34,.72,.47Z"/>
                <path class="cls-1"
                      d="M107.9,79.95l.23,.58c-1.99,1.5-.99-.12-2.75,1.38-.21,1.22-3.12,2.22-3.49,3.05-.03-.06-.94,.59-1.05,.33,0,.58-.87,.78-1.37,1.3-.13,.26,.23,0,.47,0l-1.21,1.1c-.6,.26-.89,.14-.36-.32-1.76,1.21-6.79,4.78-11.84,8.41-2.51,1.83-5.03,3.67-7.16,5.21-1.44,1.08-2.74,2.05-3.85,2.88-1.6,1.2-2.89,2.19-3.78,2.89,1.24-.49,3.29-2.31,4.51-2.54-1.61,1.59-2.82,1.97-3.36,2.77-.72,.03-1.81,.78-2.98,1.6-1.18,.82-2.44,1.7-3.68,2.11l.02,.56-1.31,.63c-3.4,2.8-4.08,3.39-4.47,3.69-.38,.29-.43,.25-2.41,1.66,.54,.39,1.26,.91,2.22,1.59,2.27,1.53,4.15,2.61,5.68,3.5,1.54,.9,2.75,1.61,3.82,2.49-.36-.25-.97-1.02,.25-.32-.23,.33,3.18,1.85,3.33,2.44,1.12,.71,4.55,3.15,3.76,1.92,.19,.3,1.03,1,1.59,1.5,.17,.15,.16,.17,.22,.24,.04,.06,.06,.1,.06,.13,0,.03-.03,.04-.1,.03-.03,0-.07-.02-.12-.03-.06-.02-.08-.02-.23-.11,.29,.22,.57,.43,.84,.63,.25,.18,.49,.34,.73,.42l-.63-.62c1.93,1.23,2.71,2.29,4.22,2.73l-.57-.66c1.14,.75,2.11,1.36,2.24,2.12l-1.25-.66c1.87,1.28,3.02,2.02,4.74,2.86l-.55-.4c2.29,.92,12.9,7.71,15.12,8.4l-.6-.93,1.77,.79c-.18-.13-1.54,.61-1.62,.39,3.38,2.29,21.06,14.11,24,16.49,1.12,1.06-.16,.71-.21,.76,1.61,.92,.91,.08,2.19,1.01,.31,.31-.26,.22-.5,.14,.6,.35,1.04,.84,1.2,.7-.62-.62-.02-.84-.13-1.33l1.64,1.19-.26,.22c.37,.27,1.46-.1,3,1.18,2.68,2.03,5.75,4.01,8.48,5.99-.16,.13-.81-.17-1.46-.48,.37,.27,.96,.62,1.23,.97-.47-.75,1.3,.61,.86,.13,2.5,.74,4.71,3.17,6.82,3.96,.57-.49,10.99-7.68,11.48-8.39,.55,.4,1.09,.79,1.22,.97-.03-.27-1.07-1.11-1.72-1.41l-.37,.31c-1.43-.79-.16-.44-1.48-1.32,.15-.36,1.4,.4,2.48,1.11-.93-.7-1.72-1.58-2.35-1.51-.81-.75,.36-.31-.62-1.2-.83-.44-2.06-.83-2.81-1.63l.05-.04c-1.93-1.81-3.62-1.8-5.36-3.48l.28,.04c-.57-.66-2.1-1.36-3.22-2.42,.31,.31,.47,.75-.31,.27-1.3-1.19-2.42-1.67-3.31-2.65l-1.22-.39c-4.97-3.53-25.08-16.78-30.15-20.21l.23,.09c-3.87-2.61-9.77-6.59-15.71-10.6-2.98-1.99-5.96-3.98-8.7-5.82l-.51-.34-.22-.14-.04-.02-.18-.09c-.13-.06-.25-.12-.37-.17-.25-.11-.51-.23-.78-.33,.23-.25-.03-.38-.11-.51l.09-.04c-.08,.02-.17,.03-.25,.04-.11,.02-.25,.02-.36,0-.06-.01-.08-.03-.03-.06,.39-.27,.31-.28,.2-.31-.11-.03-.27-.05,.08-.41,.16-.22,.59-.6,1.16-1.03,1.08-.8,2.24-1.66,3.46-2.56,1.29-.94,2.62-1.91,3.95-2.88,5.33-3.86,10.65-7.61,12.71-8.95,1.79-2.01,4.66-3.65,6.53-5.46l-.13,.26c2.1-1.82,14.96-10.8,17.43-12.88l-.39,.2c2.05-1.95,2.1-1.24,3.98-2.42-.6-.31,1.12-2.03,1.83-2.61l.05,.13c1.05-.91,3.24-3.21,5.03-4.64l.13,.32c1.31-1.43,4.27-3.45,5.35-4.3,2.59-1.76,6.81-4.19,9.9-7.04l2.74-.86,.26-.31s-3.35-11.78-9.25-10.43l-.13-.32-.85,.69c-1.15,.65-1.41,1.33-1.53,1.01l1.46-1.04c-1.11,.71-.48,.02-.19-.43-.46,.3-.91,.59-1.32,.77-.13,.26,.24,0,.44-.07-.5,.52-1.1,1.36-1.89,1.75-1.1,.78-.39-.38-1.67,.53-6.81,4.76-13.49,9.27-20.18,14.35-.24,0-.05-.13,.11-.32-1.94,1.63-3.77,2.93-5.53,4.43-.6,.26-.86,.2-1.1,.21,.23,0-2.27,1.96-4.86,3.93-1.3,.98-2.61,1.97-3.61,2.72-1,.75-1.7,1.25-1.75,1.27Z"/>
            </g>
        </g>
    </g>
</svg>